<?xml version="1.0" encoding="UTF-8"?>
<svg width="24px" height="24px" viewBox="0 0 24 24" version="1.1" xmlns="http://www.w3.org/2000/svg" xmlns:xlink="http://www.w3.org/1999/xlink">
    <!-- Generator: Sketch 58 (84663) - https://sketch.com -->
    <title>Icons/Social/Apple</title>
    <desc>Created with Sketch.</desc>
    <g id="Icons/Social/Apple" stroke="none" stroke-width="1" fill="none" fill-rule="evenodd">
        <g id="Apple">
            <rect id="Rectangle" x="0" y="0" width="24" height="24"></rect>
            <path d="M15.6063229,6.77252646 L15.8729718,6.78743667 C16.5066414,6.80479 18.3097718,7.02245667 19.4731109,8.61550333 C19.3791979,8.66830333 17.3250066,9.80217 17.347337,12.1328367 C17.3727979,14.9263033 19.948937,15.84977 19.9804501,15.8599033 C19.9650761,15.92497 19.5770414,17.1926367 18.6107805,18.47977 C17.8038935,19.61297 16.958537,20.72077 15.6157892,20.7410367 C14.3115805,20.7692367 13.8726935,20.0201033 12.3767631,20.0201033 C10.8669683,20.0201033 10.3996222,20.72077 9.14851267,20.7692367 C7.8696744,20.81337 6.8926518,19.5594367 6.05651962,18.4364367 C4.38503023,16.14337 3.08387267,11.9745033 4.82850571,9.13763667 C5.67386919,7.74630333 7.21524658,6.85035 8.86287093,6.82648333 C10.1432396,6.80189667 11.3311979,7.63857 12.1180501,7.63857 C12.8895283,7.63857 14.358537,6.63775 15.8729718,6.78743667 Z M15.3204848,1 C15.4482761,2.09121 14.9878935,3.16651 14.3149892,3.95689667 C13.6127979,4.73499 12.4895283,5.33013 11.3954761,5.25347667 C11.2522414,4.20348333 11.8066066,3.08696333 12.4271283,2.40577667 C13.1285544,1.63274333 14.3465718,1.04049533 15.3204848,1 Z" id="Combined-Shape" fill="#000000"></path>
        </g>
    </g>
</svg>