<?xml version="1.0" encoding="UTF-8"?>
<svg width="24px" height="24px" viewBox="0 0 24 24" version="1.1" xmlns="http://www.w3.org/2000/svg" xmlns:xlink="http://www.w3.org/1999/xlink">
    <!-- Generator: Sketch 58 (84663) - https://sketch.com -->
    <title>Icons/Social/Google Play</title>
    <desc>Created with Sketch.</desc>
    <g id="Icons/Social/Google-Play" stroke="none" stroke-width="1" fill="none" fill-rule="evenodd">
        <g id="Play">
            <rect id="Rectangle" x="0" y="0" width="24" height="24"></rect>
            <path d="M4.46393525,2.118815 L13.913062,12.0146667 L4.5093011,21.9968333 C4.23487808,21.8143333 4.08776776,21.4181667 4.08527639,20.9064167 C4.08055629,19.9256667 4.00568985,4.35734167 4.0000257,3.18925833 C3.99742964,2.62900917 4.19174178,2.2871375 4.46393525,2.118815 Z M17.0291979,8.70719167 L5.53896448,2.1322925 C5.41623687,2.06188333 5.27685921,2.01911508 5.13801338,2 L14.3040722,11.59975 L17.0291979,8.70719167 Z M17.5397447,14.9885833 L14.6973733,12.0119167 L17.5368811,8.99788333 L21.4472282,11.235 C22.4105581,11.7859167 21.9178476,12.4751667 21.4472282,12.7454167 L17.5397447,14.9885833 Z M5.28822379,22 C5.36834037,21.9684167 5.45199151,21.9280833 5.53878448,21.8783333 L17.031407,15.2804167 L14.3066904,12.4269167 L5.28822379,22 Z" id="Shape" fill="#000000"></path>
        </g>
    </g>
</svg>