<?xml version="1.0" encoding="UTF-8"?>
<svg width="24px" height="24px" viewBox="0 0 24 24" version="1.1" xmlns="http://www.w3.org/2000/svg" xmlns:xlink="http://www.w3.org/1999/xlink">
    <!-- Generator: Sketch 58 (84663) - https://sketch.com -->
    <title>Icons/Social/Google</title>
    <desc>Created with Sketch.</desc>
    <g id="Icons/Social/Google" stroke="none" stroke-width="1" fill="none" fill-rule="evenodd">
        <g id="Google">
            <g id="Group-3">
                <rect id="Rectangle-Copy-2" x="0" y="0" width="24" height="24"></rect>
                <path d="M18.8750756,10.6027055 L12.1479088,10.6027055 C12.1479088,11.3023117 12.1479088,12.701524 12.1436204,13.4011302 L16.041832,13.4011302 C15.8924506,14.1007363 15.3628255,15.080185 14.614489,15.5734073 C14.6137742,15.5727077 14.6130595,15.577605 14.61163,15.5769054 C13.6167069,16.2338356 12.3037229,16.3828517 11.3288126,16.1869619 C9.80069083,15.8833329 8.59134465,14.7751567 8.1003158,13.3675491 C8.10317477,13.3654503 8.105319,13.3458613 8.10746323,13.3444621 C7.80012348,12.4713536 7.80012348,11.3023117 8.10746323,10.6027055 L8.10674849,10.6027055 C8.50271644,9.31682935 9.74851454,8.14358981 11.2787806,7.82247057 C12.5095691,7.56151747 13.8983159,7.84415837 14.9196845,8.79982039 C15.0554858,8.66689522 16.7994602,6.9640538 16.9302583,6.82553178 C13.44088,3.66541072 7.85372925,4.77708492 5.76310422,8.85788771 L5.76238947,8.85788771 C5.76238947,8.85788771 5.76310422,8.85788771 5.75881575,8.86558337 L5.75881575,8.86558337 C4.72458176,10.869955 4.76746638,13.2318255 5.76596319,15.1403511 C5.76310422,15.1424499 5.76095999,15.1438491 5.75881575,15.145948 C6.66368116,16.9019594 8.31045042,18.2487013 10.2945787,18.7615126 C12.4023575,19.3142015 15.0847903,18.9364142 16.8816557,17.3112291 C16.8823704,17.3119287 16.8830852,17.3126283 16.8837999,17.3133279 C18.4062038,15.9420998 19.3539538,13.6061148 18.8750756,10.6027055" id="google" fill="#000000"></path>
            </g>
            <g transform="translate(5.000000, 5.000000)"></g>
        </g>
    </g>
</svg>