<?xml version="1.0" encoding="UTF-8"?>
<svg width="24px" height="24px" viewBox="0 0 24 24" version="1.1" xmlns="http://www.w3.org/2000/svg" xmlns:xlink="http://www.w3.org/1999/xlink">
    <!-- Generator: Sketch 58 (84663) - https://sketch.com -->
    <title>Icons/Social/Instagram</title>
    <desc>Created with Sketch.</desc>
    <g id="Icons/Social/Instagram" stroke="none" stroke-width="1" fill="none" fill-rule="evenodd">
        <g id="Group">
            <rect id="Rectangle-Copy-2" x="0" y="0" width="24" height="24"></rect>
            <path d="M11.9999841,5.44147062 C14.1360866,5.44147062 14.389087,5.44960017 15.2326547,5.4880885 C16.0126468,5.52368704 16.4362408,5.65401387 16.718171,5.76354048 C17.0915586,5.90866563 17.3580872,6.08205366 17.6380168,6.36198324 C17.9179463,6.64191283 18.0913344,6.90844135 18.2364278,7.28182899 C18.3459861,7.5637592 18.476313,7.98735315 18.5119115,8.7673135 C18.5503998,9.61091297 18.5585294,9.86391342 18.5585294,12.0000159 C18.5585294,14.1361183 18.5503998,14.3891188 18.5119115,15.2326865 C18.476313,16.0126786 18.3459861,16.4362726 18.2364278,16.7182028 C18.0913344,17.0915904 17.9179463,17.3581189 17.6380168,17.6380485 C17.3580872,17.9179781 17.0915586,18.0913661 16.718171,18.2364595 C16.4362408,18.3460179 16.0126468,18.4763447 15.2326547,18.5119433 C14.3892141,18.5504316 14.1362136,18.5585611 11.9999841,18.5585611 C9.86375464,18.5585611 9.61075419,18.5504316 8.7673135,18.5119433 C7.9873214,18.4763447 7.56372745,18.3460179 7.28182899,18.2364595 C6.9084096,18.0913661 6.64188107,17.9179781 6.36195149,17.6380485 C6.08202191,17.3581189 5.90863387,17.0915904 5.76354048,16.7182028 C5.65398211,16.4362726 5.52365528,16.0126786 5.48805675,15.2327183 C5.44956842,14.3891188 5.44143887,14.1361183 5.44143887,12.0000159 C5.44143887,9.86391342 5.44956842,9.61091297 5.48805675,8.76734525 C5.52365528,7.98735315 5.65398211,7.5637592 5.76354048,7.28182899 C5.90863387,6.90844135 6.08202191,6.64191283 6.36195149,6.36198324 C6.64188107,6.08205366 6.9084096,5.90866563 7.28182899,5.76354048 C7.56372745,5.65401387 7.9873214,5.52368704 8.76728174,5.4880885 C9.61088121,5.44960017 9.86388166,5.44147062 11.9999841,5.44147062 M12.9394591,4.00086241 C14.2796151,4.00389541 14.5873136,4.01569807 15.298358,4.04814217 C16.1498965,4.08701158 16.7314133,4.22222884 17.240304,4.42000552 C17.7663747,4.62445097 18.2125155,4.89799758 18.6572589,5.34274106 C19.1020024,5.78748454 19.375549,6.23362529 19.5799945,6.75969602 C19.7777712,7.26858672 19.9129884,7.8501035 19.9518578,8.70164199 C19.9907907,9.55489529 20,9.82733045 20,12.0000159 C20,14.1727013 19.9907907,14.4451365 19.9518578,15.2983898 C19.9129884,16.1499283 19.7777712,16.731445 19.5799945,17.2403357 C19.375549,17.7664065 19.1020024,18.2125472 18.6572589,18.6572907 C18.2125155,19.1020342 17.7663747,19.3755808 17.240304,19.5800262 C16.7314133,19.7778029 16.1498965,19.9130202 15.298358,19.9518896 C14.4451047,19.9908225 14.1726696,20 11.9999841,20 C9.82729869,20 9.55489529,19.9908225 8.70161023,19.9518896 C7.85007175,19.9130202 7.26855496,19.7778029 6.75966426,19.5800262 C6.23359353,19.3755808 5.78745279,19.1020342 5.34270931,18.6572907 C4.89796583,18.2125472 4.62441921,17.7663747 4.41997376,17.2403357 C4.22219708,16.731445 4.08697982,16.1499283 4.04811042,15.2983898 C4.01566632,14.5873453 4.00388571,14.2796469 4.00086006,12.9394908 L4.00086006,11.0605409 C4.00388571,9.72038489 4.01566632,9.41268641 4.04811042,8.70164199 C4.08697982,7.8501035 4.22219708,7.26858672 4.41997376,6.75969602 C4.62441921,6.23362529 4.89796583,5.78748454 5.34270931,5.34274106 C5.78745279,4.89799758 6.23359353,4.62445097 6.75966426,4.42000552 C7.26855496,4.22222884 7.85007175,4.08701158 8.70161023,4.04814217 C9.36527639,4.01786101 9.677545,4.00556084 10.8058223,4.00158946 L11.0605114,4.00086241 L12.9394591,4.00086241 Z M12.015873,7.9047619 C9.74537911,7.9047619 7.9047619,9.74537911 7.9047619,12.015873 C7.9047619,14.2863669 9.74537911,16.1269841 12.015873,16.1269841 C14.2863669,16.1269841 16.1269841,14.2863669 16.1269841,12.015873 C16.1269841,9.74537911 14.2863669,7.9047619 12.015873,7.9047619 Z M12.015873,9.34724978 C13.4896951,9.34724978 14.6844962,10.5420509 14.6844962,12.015873 C14.6844962,13.4896951 13.4896951,14.6844962 12.015873,14.6844962 C10.5420509,14.6844962 9.34724978,13.4896951 9.34724978,12.015873 C9.34724978,10.5420509 10.5420509,9.34724978 12.015873,9.34724978 Z M16.253984,6.76190476 C15.7279936,6.76190476 15.3015873,7.18827958 15.3015873,7.71426996 C15.3015873,8.24026035 15.7279936,8.66666667 16.253984,8.66666667 C16.7799744,8.66666667 17.2063492,8.24026035 17.2063492,7.71426996 C17.2063492,7.18827958 16.7799744,6.76190476 16.253984,6.76190476 Z" id="Shape" fill="#000000"></path>
        </g>
    </g>
</svg>