<?xml version="1.0" encoding="UTF-8"?>
<svg width="24px" height="24px" viewBox="0 0 24 24" version="1.1" xmlns="http://www.w3.org/2000/svg" xmlns:xlink="http://www.w3.org/1999/xlink">
    <!-- Generator: Sketch 58 (84663) - https://sketch.com -->
    <title>Icons/Social/Medium</title>
    <desc>Created with Sketch.</desc>
    <g id="Icons/Social/Medium" stroke="none" stroke-width="1" fill="none" fill-rule="evenodd">
        <g id="Group">
            <rect id="Rectangle" x="0" y="0" width="24" height="24"></rect>
            <path d="M5.89733333,8.44811841 C5.91733333,8.26232089 5.842,8.07904267 5.69533333,7.9543379 L4.202,6.2538183 L4.202,6 L8.84066667,6 L12.426,13.4287514 L15.578,6 L20,6 L20,6.2538183 L18.7226667,7.41080145 C18.6126667,7.49015903 18.558,7.6205322 18.5806667,7.74964573 L18.5806667,16.2509841 C18.558,16.3794678 18.6126667,16.509841 18.7226667,16.5891986 L19.97,17.7461817 L19.97,18 L13.6953333,18 L13.6953333,17.7461817 L14.988,16.5608566 C15.1146667,16.4411904 15.1146667,16.4059203 15.1146667,16.2226421 L15.1146667,9.35128326 L11.522,17.9722878 L11.0366667,17.9722878 L6.85333333,9.35128326 L6.85333333,15.129271 C6.81866667,15.3717525 6.904,15.6167533 7.08466667,15.7918438 L8.76533333,17.7178397 L8.76533333,17.9722878 L4,17.9722878 L4,17.7178397 L5.68066667,15.7918438 C5.86066667,15.6161234 5.94066667,15.369863 5.89733333,15.129271 L5.89733333,8.44811841 L5.89733333,8.44811841 Z" id="Icon-Color" fill="#000000"></path>
        </g>
    </g>
</svg>