<?xml version="1.0" encoding="UTF-8"?>
<svg width="24px" height="24px" viewBox="0 0 24 24" version="1.1" xmlns="http://www.w3.org/2000/svg" xmlns:xlink="http://www.w3.org/1999/xlink">
    <!-- Generator: Sketch 58 (84663) - https://sketch.com -->
    <title>Icons/Social/RSS</title>
    <desc>Created with Sketch.</desc>
    <g id="Icons/Social/RSS" stroke="none" stroke-width="1" fill="none" fill-rule="evenodd">
        <g id="Group">
            <rect id="Rectangle-Copy-2" x="0" y="0" width="24" height="24"></rect>
            <g id="Group-8" transform="translate(5.000000, 5.000000)" fill="#000000">
                <path d="M0.00576199436,0 L0.00576199436,2.6719191 C6.2443556,2.67603481 11.3149106,7.7556444 11.3206726,14 L14,14 C13.9983537,10.1411101 12.429445,6.64440263 9.89416745,4.10747883 C7.35888993,1.57137817 3.86382879,0.0016462841 0.00576199436,0 L0.00576199436,0 Z M0.0016462841,4.76105362 L0.0016462841,7.43379586 C1.74588429,7.434619 3.39793039,8.12029633 4.63182032,9.35747883 C5.86817968,10.5913688 6.5497413,12.244238 6.55303387,13.9950611 L6.55303387,14 L9.23894638,14 C9.23647695,11.4531985 8.20096425,9.14675447 6.52751646,7.47248354 C4.85406867,5.79821261 2.54762465,4.76187676 0.0016462841,4.76105362 L0.0016462841,4.76105362 Z M0.544920038,13.4402634 L0.544920038,13.4394403 L0.544096896,13.4394403 L0.544920038,13.4402634 L0.544920038,13.4402634 Z M3.17238946,10.8218485 C3.51234713,11.1609831 3.71895579,11.6202963 3.71977893,12.1322907 C3.71895579,12.6426388 3.51234713,13.1027752 3.17403575,13.4394403 L3.17238946,13.4402634 C2.83490122,13.7769285 2.37229539,13.9835372 1.85865475,13.9835372 C1.34419097,13.9835372 0.883231421,13.7761054 0.544920038,13.4394403 C0.208254939,13.1027752 0,12.6434619 0,12.1322907 C0,11.6202963 0.208254939,11.1601599 0.544920038,10.8218485 C0.883231421,10.4851834 1.34419097,10.2769285 1.85865475,10.2769285 C2.37229539,10.2769285 2.83490122,10.4851834 3.17238946,10.8218485 L3.17238946,10.8218485 Z" id="Shape"></path>
            </g>
        </g>
    </g>
</svg>