<?xml version="1.0" encoding="UTF-8"?>
<svg width="24px" height="24px" viewBox="0 0 24 24" version="1.1" xmlns="http://www.w3.org/2000/svg" xmlns:xlink="http://www.w3.org/1999/xlink">
    <!-- Generator: Sketch 58 (84663) - https://sketch.com -->
    <title>Icons/Social/Twitter</title>
    <desc>Created with Sketch.</desc>
    <g id="Icons/Social/Twitter" stroke="none" stroke-width="1" fill="none" fill-rule="evenodd">
        <g id="Twitter">
            <rect id="Rectangle" x="0" y="0" width="24" height="24"></rect>
            <g transform="translate(4.000000, 5.000000)" fill="#000000" id="twitter">
                <path d="M5.032,14 C11.0696,14 14.372,8.61319646 14.372,3.94227869 C14.372,3.78893613 14.372,3.63645504 14.3624,3.48483543 C15.0048,2.9851799 15.5592,2.36491785 16,1.65506241 C15.4016,1.94107213 14.7656,2.12887369 14.1152,2.21157529 C14.8,1.76963859 15.3128,1.07528969 15.5584,0.25602691 C14.9136,0.667811988 14.2088,0.958129083 13.4736,1.11405607 C12.2304,-0.309100729 10.1512,-0.378018734 8.8288,0.960713508 C7.9768,1.82391152 7.6144,3.11095526 7.8792,4.33855721 C5.24,4.19555235 2.7808,2.85337421 1.1136,0.645413636 C0.2424,2.26067937 0.688,4.32649656 2.1304,5.36371253 C1.608,5.34734451 1.0968,5.1957249 0.64,4.92177583 L0.64,4.96657253 C0.6408,6.64903332 1.7424,8.09803437 3.2736,8.43142522 C2.7904,8.5735686 2.2832,8.59424401 1.792,8.49172847 C2.2216,9.93211477 3.4544,10.9185037 4.8584,10.9469324 C3.696,11.9307369 2.26,12.4648514 0.7816,12.4631285 C0.5208,12.462267 0.26,12.445899 0,12.4123015 C1.5016,13.4495174 3.248,14 5.032,13.9974156"></path>
            </g>
        </g>
    </g>
</svg>