<?xml version="1.0" encoding="UTF-8"?>
<svg width="24px" height="24px" viewBox="0 0 24 24" version="1.1" xmlns="http://www.w3.org/2000/svg" xmlns:xlink="http://www.w3.org/1999/xlink">
    <!-- Generator: Sketch 58 (84663) - https://sketch.com -->
    <title>Icons/Social/WhatsApp</title>
    <desc>Created with Sketch.</desc>
    <g id="Icons/Social/WhatsApp" stroke="none" stroke-width="1" fill="none" fill-rule="evenodd">
        <g id="Group">
            <rect id="Rectangle-Copy-2" x="0" y="0" width="24" height="24"></rect>
            <path d="M11.5111217,2.01166045 C17.3635212,1.73294261 22.1768528,6.48768565 21.9950111,12.3196876 C21.8253694,17.7603272 17.287139,22.0819486 11.844474,21.9988154 C10.3022193,21.9752835 8.84497827,21.6020042 7.54759014,20.9557453 L7.54759014,20.9557453 L2.4977341,22.1521584 C2.22080045,22.2177391 1.96937574,21.973644 2.02680705,21.694878 L2.02680705,21.694878 L3.08849054,16.5413466 C2.39700027,15.1872023 2.00501112,13.6546399 2.00004615,12.0309398 C1.98393851,6.69990661 6.1861162,2.26520688 11.5111217,2.01166045 Z M12.0001799,4.16989127 C9.92739682,4.16989127 7.92901888,4.99760609 6.46333918,6.46328578 C4.98444692,7.94222627 4.1699929,9.90848898 4.1699929,11.9999818 C4.1699929,13.2526208 4.45632966,14.4485518 5.02104672,15.5545022 L5.02104672,15.5545022 L5.36751517,16.2329728 L4.71580729,19.3966131 L7.81188988,18.6630741 L8.51514609,19.0134002 C9.60296541,19.5552605 10.7754127,19.8300242 12.0000352,19.8300242 C14.0914799,19.8300242 16.0577908,19.0155701 17.5366831,17.5366779 C19.0023628,16.0710464 19.8301258,14.0726685 19.8301258,11.9998372 C19.8301258,9.90839254 19.0156236,7.94212983 17.5367313,6.46323756 C16.057839,4.98439351 14.0916245,4.16989127 12.0001799,4.16989127 Z M8.24052705,7.35142161 C8.60908075,7.03972056 9.17321915,7.16822973 9.36841808,7.60969371 L9.36841808,7.60969371 L10.1833543,9.452848 C10.2905015,9.69515893 10.2563128,9.97667358 10.09429,10.1862906 L10.09429,10.1862906 L9.68074601,10.7213035 C9.50637859,10.9469299 9.48289492,11.2560752 9.624906,11.5033529 C10.1171468,12.3605791 12.0446397,14.0743562 12.9609367,14.4451763 C13.2252846,14.5521306 13.5283541,14.4867429 13.7280858,14.2832499 L13.7280858,14.2832499 L14.2017615,13.8006534 C14.3873162,13.6115785 14.6615495,13.5393433 14.916205,13.6124465 L14.916205,13.6124465 L16.8531975,14.1686284 C17.3171807,14.3018632 17.5213488,14.8431931 17.2627873,15.2508059 C16.8835286,15.8486508 16.2825975,16.5788144 15.530638,16.7609454 C14.2048958,17.0820978 12.1687126,16.7685643 9.62601508,14.3953639 C7.42506038,12.341146 6.84303196,10.6303585 6.98051026,9.27322449 C7.05848374,8.5034714 7.69992053,7.80865388 8.24052705,7.35142161 Z" id="Combined-Shape" fill="#000000"></path>
        </g>
    </g>
</svg>