<?xml version="1.0" encoding="UTF-8"?>
<svg width="24px" height="24px" viewBox="0 0 24 24" version="1.1" xmlns="http://www.w3.org/2000/svg" xmlns:xlink="http://www.w3.org/1999/xlink">
    <!-- Generator: Sketch 58 (84663) - https://sketch.com -->
    <title>Icons/Social/YouTube</title>
    <desc>Created with Sketch.</desc>
    <g id="Icons/Social/YouTube" stroke="none" stroke-width="1" fill="none" fill-rule="evenodd">
        <g id="Group">
            <rect id="Rectangle-Copy-2" x="0" y="0" width="24" height="24"></rect>
            <path d="M12.2473578,5.00070496 C13.4224966,5.00592165 18.4398662,5.04974188 19.8138865,5.41783182 C20.6744042,5.64782041 21.3520188,6.32560355 21.582006,7.18596174 C22,8.74583426 22,11.9999177 22,11.9999177 C22,11.9999177 22,15.2541657 21.582006,16.8138736 C21.3520188,17.6742318 20.6744042,18.3521796 19.8138865,18.5820036 C18.2541878,19 11.9999177,19 11.9999177,19 C11.9999177,19 5.74581224,19 4.18611351,18.5820036 C3.32559575,18.3521796 2.64798123,17.6742318 2.41799399,16.8138736 C2.05573253,15.4621268 2.007431,12.837592 2.0009908,12.1617471 L2.0009908,11.8380959 C2.007431,11.1622814 2.05573253,8.53785126 2.41799399,7.18596174 C2.64798123,6.32560355 3.32559575,5.64782041 4.18611351,5.41783182 C5.56013382,5.04974188 10.5773757,5.00592165 11.752484,5.00070496 Z M9.8150913,8.90756863 L9.8150913,14.9076862 L15.0109591,11.9077921 L9.8150913,8.90756863 Z" id="Combined-Shape" fill="#000000"></path>
        </g>
    </g>
</svg>