<?xml version="1.0" encoding="UTF-8"?>
<svg width="50px" height="24px" viewBox="0 0 50 24" version="1.1" xmlns="http://www.w3.org/2000/svg" xmlns:xlink="http://www.w3.org/1999/xlink">
    <!-- Generator: Sketch 58 (84663) - https://sketch.com -->
    <title>Icons/Social/YouTube logo</title>
    <desc>Created with Sketch.</desc>
    <g id="Icons/Social/YouTube-logo" stroke="none" stroke-width="1" fill="none" fill-rule="evenodd">
        <g id="Group">
            <rect id="Rectangle-Copy-2" x="0" y="0" width="50" height="24"></rect>
            <g id="YouTube-Logo" transform="translate(2.000000, 2.000000)" fill="#000000">
                <path d="M15.5,16.15 L15.5,15.1 C14.8375,15.8875 14.275,16.2875 13.6625,16.2875 C13.125,16.2875 12.75,16.025 12.5625,15.55 C12.45,15.2625 12.3625,14.8125 12.3625,14.15 L12.3625,6.5375 L14.1125,6.5375 L14.1125,14.3375 C14.1625,14.6125 14.2625,14.7 14.4875,14.7 C14.825,14.7 15.125,14.4 15.5,13.8625 L15.5,6.5375 L17.25,6.5375 L17.25,16.15 L15.5,16.15 L15.5,16.15 Z M10.5125,7.3875 C10.05,6.7375 9.3125,6.4625 8.575,6.4625 C7.7375,6.4625 7.1125,6.7375 6.6375,7.3875 C6.275,7.875 6.0875,8.6625 6.0875,9.6875 L6.0875,13.1 C6.0875,14.125 6.2625,14.825 6.6125,15.3125 C7.0875,15.9625 7.8375,16.3125 8.575,16.3125 C9.3125,16.3125 10.0875,15.9625 10.55,15.3125 C10.9125,14.825 11.075,14.125 11.075,13.1 L11.075,9.675 C11.075,8.65 10.875,7.875 10.5125,7.3875 L10.5125,7.3875 Z M9.3125,13.2875 C9.4125,14.25 9.125,14.7125 8.575,14.7125 C8.0375,14.7125 7.75,14.25 7.8375,13.2875 L7.8375,9.4875 C7.75,8.5375 8.0375,8.0875 8.575,8.0875 C9.125,8.0875 9.4125,8.5375 9.3125,9.4875 L9.3125,13.2875 L9.3125,13.2875 Z M4.15,16.15 L2.3,16.15 L2.3,10.9125 C2.3,10.9125 0.3875,4.5 0,3.3 L1.9375,3.3 L3.225,8.3125 L4.5125,3.3 L6.45,3.3 L4.15,10.9125 L4.15,16.15 L4.15,16.15 Z" id="Fill-1"></path>
                <path d="M32.8078343,0.0383916784 C34.1095812,0.0436143663 38.8132812,0.0794270833 42.1125,0.325 C42.65,0.4 43.825,0.4 44.875,1.525 C45.7,2.3875 45.9625,4.3375 45.9625,4.3375 C45.9625,4.3375 46.2188615,6.46996136 46.2365416,8.67595586 L46.2375,8.9125 L46.2375,11.0625 C46.2375,13.35 45.9625,15.6375 45.9625,15.6375 C45.9625,15.6375 45.7,17.5875 44.875,18.45 C43.825,19.575 42.65,19.5875 42.1125,19.65 C38.571875,19.9135417 33.4137153,19.9460069 32.5786097,19.9495877 L32.4245243,19.9495878 C31.8618889,19.943368 25.2058511,19.8659574 23.0875,19.6625 C22.475,19.5375 21.1,19.575 20.05,18.45 C19.225,17.5875 18.95,15.6375 18.95,15.6375 C18.95,15.6375 18.6936385,13.5050386 18.6759584,11.2990441 L18.6759584,8.67595586 C18.6936385,6.46996136 18.95,4.3375 18.95,4.3375 C18.95,4.3375 19.225,2.3875 20.05,1.525 C21.1,0.4 22.275,0.4 22.8125,0.325 C26.0086182,0.087101237 30.5142502,0.0460575051 31.980877,0.0389763925 L32.1131757,0.0383916784 L32.8078343,0.0383916784 Z M28.2375,6.625 L26.4875,6.625 L26.4875,14.15 C26.4875,14.8125 26.5625,15.2625 26.6875,15.55 C26.875,16.025 27.2375,16.2875 27.7875,16.2875 C28.3528846,16.2875 28.8756657,15.9466716 29.4738223,15.2748464 L29.625,15.1 L29.625,16.15 L31.375,16.15 L31.375,6.625 L29.625,6.625 L29.625,13.8625 C29.25,14.4 28.95,14.7 28.6125,14.7 C28.415625,14.7 28.3144531,14.6330078 28.2587402,14.4320312 L28.2375,14.3375 L28.2375,6.625 Z M34.375,3.3875 L32.475,3.3875 L32.475,16.15 L34.375,16.15 L34.375,15.1875 C34.9375,15.9 35.6,16.275 36.1875,16.275 C36.85,16.275 37.3375,15.9 37.5625,15.2 C37.675,14.7875 37.75,14.175 37.75,13.2875 L37.75,13.2875 L37.75,9.4875 C37.75,8.5875 37.6375,7.9625 37.525,7.5875 C37.3,6.875 36.85,6.475 36.1875,6.475 C35.575,6.475 34.9125,6.8625 34.375,7.55 L34.375,7.55 L34.375,3.3875 Z M26.7625,3.3875 L20.95,3.4 L20.95,5.2 L22.8875,5.2 L22.8875,16.15 L24.7375,16.15 L24.7375,5.2 L26.7625,5.2 L26.7625,3.3875 Z M41.425,6.4875 C42.2625,6.4875 42.925,6.8375 43.3875,7.4875 C43.7375,7.9625 43.9375,8.7125 43.9375,9.725 L43.9375,11.675 L40.6125,11.675 L40.6125,13.3875 C40.6,14.2625 40.85,14.7 41.425,14.7 C41.8375,14.7 42.075,14.475 42.1625,14.0125 C42.1875,13.925 42.175,13.5125 42.175,12.8125 L43.9375,12.8125 L43.9375,13.0875 C43.9375,13.6375 43.8875,14.0375 43.875,14.2125 C43.8125,14.5875 43.6875,14.9375 43.4875,15.2375 C43.025,15.925 42.3375,16.275 41.4625,16.275 C40.5875,16.275 39.925,15.95 39.4375,15.3 C39.0875,14.825 38.8625,14.1125 38.8625,13.1 L38.8625,9.775 C38.8625,8.75 39.0625,7.9625 39.425,7.4875 C39.9,6.8375 40.5625,6.4875 41.425,6.4875 Z M41.4,8.0625 C40.85,8.0625 40.6125,8.3 40.6125,9.2 L40.6125,10.25 L42.175,10.25 L42.175,9.2125 C42.175,8.325 41.9625,8.0625 41.4,8.0625 Z M34.425,8.5 L34.425,14.275 C34.7,14.5625 35.025,14.7 35.3,14.7 C35.775,14.7 36,14.3375 36,13.3875 L36,9.3 C36,8.3375 35.775,8.0625 35.3,8.0625 C35.025,8.0625 34.7,8.2125 34.425,8.5 L34.425,8.5 Z" id="Fill-2"></path>
            </g>
        </g>
    </g>
</svg>