<?xml version="1.0" encoding="UTF-8"?>
<svg width="23px" height="23px" viewBox="0 0 23 23" version="1.1" xmlns="http://www.w3.org/2000/svg" xmlns:xlink="http://www.w3.org/1999/xlink">
    <!-- Generator: Sketch 58 (84663) - https://sketch.com -->
    <title>FaceBook</title>
    <desc>Created with Sketch.</desc>
    <g id="Mockup" stroke="none" stroke-width="1" fill="none" fill-rule="evenodd">
        <g id="XL_Landing_Enter" transform="translate(-253.000000, -697.000000)" fill="#E4E2DB" fill-rule="nonzero">
            <g id="SocialMediaIcons" transform="translate(253.000000, 697.000000)">
                <path d="M21.1666667,0.625 C21.8373693,0.625 22.374915,1.16237583 22.374915,1.83333333 L22.374915,1.83333333 L22.374915,21.1666667 C22.374915,21.8375392 21.8373693,22.375 21.1666667,22.375 L21.1666667,22.375 L15.125,22.375 L15.125,13.9166667 L17.5416667,13.9166667 L18.75,10.2916667 L15.125,10.2916667 L15.125,9.08333333 C15.3577679,7.8952486 15.623874,7.25951925 17.5416667,6.66666667 L18.75,6.66666667 L18.75,4.25 C18.4468086,4.33773282 17.406708,4.25 16.3333333,4.25 C13.6702594,4.25 11.9406981,5.75154887 11.5,9.08333333 L11.5,10.2916667 L9.08333333,10.2916667 L9.08333333,13.9166667 L11.5,13.9166667 L11.5,22.375 L1.83333333,22.375 C1.16229087,22.375 0.625,21.8375392 0.625,21.1666667 L0.625,21.1666667 L0.625,1.83333333 C0.625,1.16237583 1.16229087,0.625 1.83333333,0.625 L1.83333333,0.625 Z" id="FaceBook"></path>
            </g>
        </g>
    </g>
</svg>