<?xml version="1.0" encoding="UTF-8"?>
<svg width="25px" height="21px" viewBox="0 0 25 21" version="1.1" xmlns="http://www.w3.org/2000/svg" xmlns:xlink="http://www.w3.org/1999/xlink">
    <!-- Generator: Sketch 58 (84663) - https://sketch.com -->
    <title>Twitter</title>
    <desc>Created with Sketch.</desc>
    <g id="Mockup" stroke="none" stroke-width="1" fill="none" fill-rule="evenodd">
        <g id="XL_Landing_Enter" transform="translate(-299.000000, -698.000000)" fill="#E4E2DB" fill-rule="nonzero">
            <g id="SocialMediaIcons" transform="translate(253.000000, 697.000000)">
                <path d="M70.5833333,4.12197577 C69.6941549,4.51016002 68.7385908,4.77251723 67.7356462,4.89051271 C68.7593639,4.2864385 69.5454722,3.32994416 69.915676,2.19027837 C68.9577252,2.74953866 67.896616,3.15573549 66.7672647,3.37467106 C65.8627937,2.42609529 64.5742407,1.83333333 63.1482315,1.83333333 C60.409979,1.83333333 58.1899942,4.0185992 58.1899942,6.71396057 C58.1899942,7.0964887 58.2339271,7.46900983 58.3184339,7.82621592 C54.1977517,7.62268241 50.5444207,5.67958574 48.0990252,2.72674012 C47.6722478,3.44759157 47.4277436,4.28600342 47.4277436,5.18045441 C47.4277436,6.87372438 48.3031323,8.36763766 49.6334967,9.24285783 C48.8206927,9.21753579 48.0562414,8.9979911 47.3877001,8.63243135 C47.3873465,8.65279341 47.3873465,8.67324247 47.3873465,8.69377856 C47.3873465,11.0585611 49.0964007,13.0312438 51.3645616,13.4795569 C50.9484802,13.5911132 50.5104765,13.65072 50.058241,13.65072 C49.7387767,13.65072 49.4281521,13.6201769 49.1254831,13.5631806 C49.7563676,15.5022745 51.5874087,16.9133473 53.7570077,16.9527661 C52.0601522,18.2617676 49.9222874,19.0420519 47.5994093,19.0420519 C47.1992392,19.0420519 46.8045497,19.0189923 46.4166667,18.9739173 C48.6108398,20.3587108 51.2170282,21.1666667 54.0169812,21.1666667 C63.1366515,21.1666667 68.1236176,13.7295577 68.1236176,7.2799212 C68.1236176,7.0682951 68.1188442,6.85780021 68.1092975,6.64852355 C69.0779442,5.96039061 69.9185931,5.10074655 70.5833333,4.12197577" id="Twitter"></path>
            </g>
        </g>
    </g>
</svg>