<?xml version="1.0" encoding="UTF-8"?>
<svg width="25px" height="17px" viewBox="0 0 25 17" version="1.1" xmlns="http://www.w3.org/2000/svg" xmlns:xlink="http://www.w3.org/1999/xlink">
    <!-- Generator: Sketch 58 (84663) - https://sketch.com -->
    <title>Youtube</title>
    <desc>Created with Sketch.</desc>
    <g id="Mockup" stroke="none" stroke-width="1" fill="none" fill-rule="evenodd">
        <g id="XL_Landing_Enter" transform="translate(-344.000000, -700.000000)" fill="#E4E2DB" fill-rule="nonzero">
            <g id="SocialMediaIcons" transform="translate(253.000000, 697.000000)">
                <path d="M115.32855,6.68814815 C115.32855,6.68814815 115.09264,5.03407407 114.366035,4.30101852 C113.450703,3.34240741 112.422133,3.34240741 111.940876,3.28601852 C108.572075,3.04166667 103.504718,3.04166667 103.504718,3.04166667 L103.495282,3.04166667 C103.495282,3.04166667 98.4279253,3.04166667 95.0402512,3.28601852 C94.5684303,3.34240741 93.5398607,3.34240741 92.6150918,4.30101852 C91.897924,5.03407407 91.6620135,6.68814815 91.6620135,6.68814815 C91.6620135,6.68814815 91.4166667,8.64296296 91.4166667,10.5883796 L91.4166667,12.4116204 C91.4166667,14.357037 91.6620135,16.3024537 91.6620135,16.3024537 C91.6620135,16.3024537 91.897924,17.9565278 92.6245282,18.6895833 C93.5398607,19.6481944 94.7477222,19.62 95.2855981,19.7139815 C97.2200638,19.9019444 103.495282,19.9583333 103.495282,19.9583333 C103.495282,19.9583333 108.572075,19.9489352 111.950312,19.7045833 C112.422133,19.6481944 113.450703,19.6481944 114.375472,18.6895833 C115.102076,17.9565278 115.337986,16.3024537 115.337986,16.3024537 C115.337986,16.3024537 115.583333,14.357037 115.583333,12.4116204 L115.583333,10.5883796 C115.573897,8.64296296 115.32855,6.68814815 115.32855,6.68814815 L115.32855,6.68814815 Z M101.083333,15.125 L101.083333,7.875 L107.125,11.5151252 L101.083333,15.125 L101.083333,15.125 Z" id="Youtube"></path>
            </g>
        </g>
    </g>
</svg>